<?xml version="1.0" encoding="UTF-8" standalone="no"?>
<!DOCTYPE svg PUBLIC "-//W3C//DTD SVG 1.1//EN" "http://www.w3.org/Graphics/SVG/1.1/DTD/svg11.dtd">
<svg version="1.1" xmlns="http://www.w3.org/2000/svg" xmlns:xlink="http://www.w3.org/1999/xlink" preserveAspectRatio="xMidYMid meet" viewBox="0 0 640 640" width="640" height="640"><defs><path d="M376.22 302.71C373.24 294.33 349.47 227.25 346.5 218.87C391.07 225.24 426.1 259.2 434.59 302.71C438.83 304.83 451.57 316.51 457.93 326.06C457.93 243.28 388.95 193.4 323.15 196.58C317.95 211.12 276.35 327.44 271.15 341.98C269.03 347.28 272.21 353.65 277.52 355.77C277.52 355.77 277.52 355.77 277.52 355.77C282.82 357.9 289.19 354.71 291.31 349.41C293.93 342.05 307.02 305.26 330.58 239.03C354.14 305.26 367.23 342.05 369.85 349.41C371.97 354.71 378.34 357.9 383.64 355.77C388.95 353.65 392.14 347.28 390.01 341.98C389.38 340.17 384.28 325.74 383.64 323.94C383.64 323.94 383.64 323.94 383.64 323.94C413.36 323.94 436.71 347.28 436.71 377C436.71 406.72 413.36 430.06 383.64 430.06C353.93 430.06 330.58 406.72 330.58 377C330.58 363.2 335.89 350.47 344.38 341.98C343.63 339.75 337.69 321.92 336.95 319.69C319.97 333.49 309.35 353.65 309.35 377C309.35 389.74 312.54 401.41 317.84 410.96C307.23 423.7 293.44 430.06 277.52 430.06C247.8 430.06 224.45 406.72 224.45 377C224.45 356.84 236.13 339.86 253.11 330.3C254.06 327.65 261.7 306.42 262.66 303.77C228.7 311.2 203.23 340.92 203.23 377C203.23 418.39 236.13 451.29 277.52 451.29C297.68 451.29 316.78 442.8 330.58 429C344.38 442.8 362.42 451.29 383.64 451.29C425.03 451.29 457.93 418.39 457.93 377C457.93 335.61 425.03 302.71 383.64 302.71C381.52 302.71 378.34 302.71 376.22 302.71Z" id="j3LJpX5qD"></path></defs><g><g><g><use xlink:href="#j3LJpX5qD" opacity="1" fill="#ffffff" fill-opacity="1"></use><g><use xlink:href="#j3LJpX5qD" opacity="1" fill-opacity="0" stroke="#000000" stroke-width="1" stroke-opacity="0"></use></g></g></g></g></svg>